<svg xmlns="http://www.w3.org/2000/svg" xmlns:xlink="http://www.w3.org/1999/xlink" viewBox="0 0 608.78 689.31"><defs><style>.cls-1,.cls-10,.cls-2,.cls-9{fill:none;}.cls-2,.cls-9{stroke:#f1623a;}.cls-10,.cls-2,.cls-5,.cls-9{stroke-miterlimit:10;}.cls-10,.cls-2{stroke-width:2.24px;}.cls-11,.cls-3,.cls-5{fill:#c42f16;}.cls-4{clip-path:url(#clip-path);}.cls-10,.cls-5{stroke:#c42f16;}.cls-5,.cls-9{stroke-width:3.81px;}.cls-12,.cls-6{fill:#f1623a;}.cls-7{clip-path:url(#clip-path-2);}.cls-8{clip-path:url(#clip-path-3);}.cls-11{font-size:45.95px;}.cls-11,.cls-12,.cls-15{font-family:Montserrat-ExtraBold, Montserrat;font-weight:800;}.cls-12{font-size:38.55px;}.cls-13{letter-spacing:-0.01em;}.cls-14{letter-spacing:0.02em;}.cls-15{font-size:26.87px;}.cls-15,.cls-16{fill:#333;}.cls-16{font-size:13.43px;font-family:Montserrat-Medium, Montserrat;font-weight:500;}.cls-17{letter-spacing:-0.01em;}.cls-18{letter-spacing:-0.01em;}.cls-19{letter-spacing:0em;}.cls-20{letter-spacing:-0.01em;}.cls-21{letter-spacing:-0.02em;}.cls-22{letter-spacing:0.01em;}.cls-23{letter-spacing:-0.01em;}.cls-24{letter-spacing:0.01em;}.cls-25{letter-spacing:-0.02em;}</style><clipPath id="clip-path" transform="translate(191.35 120.69)"><rect class="cls-1" x="172.35" y="152.26" width="69.41" height="179.13"/></clipPath><clipPath id="clip-path-2" transform="translate(191.35 120.69)"><rect class="cls-1" x="30.97" y="152.26" width="69.41" height="179.13"/></clipPath><clipPath id="clip-path-3" transform="translate(191.35 120.69)"><rect class="cls-1" x="172.35" y="70.53" width="69.41" height="39.18"/></clipPath></defs><g id="Layer_2" data-name="Layer 2"><g id="Layer_1-2" data-name="Layer 1"><rect class="cls-2" x="363.69" y="121.81" width="69.41" height="108.6"/><rect class="cls-3" x="222.31" y="230.41" width="69.41" height="44.78"/><g class="cls-4"><line class="cls-5" x1="21.43" y1="436.06" x2="355.53" y2="101.96"/><line class="cls-5" x1="27.58" y1="442.21" x2="361.68" y2="108.11"/><line class="cls-5" x1="33.72" y1="448.35" x2="367.82" y2="114.25"/><line class="cls-5" x1="39.87" y1="454.49" x2="373.96" y2="120.39"/><line class="cls-5" x1="46.01" y1="460.64" x2="380.11" y2="126.54"/><line class="cls-5" x1="52.15" y1="466.78" x2="386.25" y2="132.68"/><line class="cls-5" x1="58.3" y1="472.92" x2="392.4" y2="138.83"/><line class="cls-5" x1="64.44" y1="479.07" x2="398.54" y2="144.97"/><line class="cls-5" x1="70.59" y1="485.21" x2="404.68" y2="151.11"/><line class="cls-5" x1="76.73" y1="491.36" x2="410.83" y2="157.26"/><line class="cls-5" x1="82.87" y1="497.5" x2="416.97" y2="163.4"/><line class="cls-5" x1="89.02" y1="503.64" x2="423.12" y2="169.55"/><line class="cls-5" x1="95.16" y1="509.79" x2="429.26" y2="175.69"/><line class="cls-5" x1="101.3" y1="515.93" x2="435.4" y2="181.83"/><line class="cls-5" x1="107.45" y1="522.08" x2="441.55" y2="187.98"/><line class="cls-5" x1="113.59" y1="528.22" x2="447.69" y2="194.12"/><line class="cls-5" x1="119.74" y1="534.36" x2="453.83" y2="200.26"/><line class="cls-5" x1="125.88" y1="540.51" x2="459.98" y2="206.41"/><line class="cls-5" x1="132.02" y1="546.65" x2="466.12" y2="212.55"/><line class="cls-5" x1="138.17" y1="552.8" x2="472.27" y2="218.7"/><line class="cls-5" x1="144.31" y1="558.94" x2="478.41" y2="224.84"/><line class="cls-5" x1="150.46" y1="565.08" x2="484.55" y2="230.98"/><line class="cls-5" x1="156.6" y1="571.23" x2="490.7" y2="237.13"/><line class="cls-5" x1="162.74" y1="577.37" x2="496.84" y2="243.27"/><line class="cls-5" x1="168.89" y1="583.51" x2="502.99" y2="249.42"/><line class="cls-5" x1="175.03" y1="589.66" x2="509.13" y2="255.56"/><line class="cls-5" x1="181.18" y1="595.8" x2="515.27" y2="261.7"/><line class="cls-5" x1="187.32" y1="601.95" x2="521.42" y2="267.85"/><line class="cls-5" x1="193.46" y1="608.09" x2="527.56" y2="273.99"/><line class="cls-5" x1="199.61" y1="614.23" x2="533.71" y2="280.14"/><line class="cls-5" x1="205.75" y1="620.38" x2="539.85" y2="286.28"/><line class="cls-5" x1="211.89" y1="626.52" x2="545.99" y2="292.42"/><line class="cls-5" x1="218.04" y1="632.67" x2="552.14" y2="298.57"/><line class="cls-5" x1="224.18" y1="638.81" x2="558.28" y2="304.71"/><line class="cls-5" x1="230.33" y1="644.95" x2="564.42" y2="310.85"/><line class="cls-5" x1="236.47" y1="651.1" x2="570.57" y2="317"/><line class="cls-5" x1="242.61" y1="657.24" x2="576.71" y2="323.14"/><line class="cls-5" x1="248.76" y1="663.39" x2="582.86" y2="329.29"/><line class="cls-5" x1="254.9" y1="669.53" x2="589" y2="335.43"/><line class="cls-5" x1="261.05" y1="675.67" x2="595.14" y2="341.57"/><line class="cls-5" x1="267.19" y1="681.82" x2="601.29" y2="347.72"/><line class="cls-5" x1="273.33" y1="687.96" x2="607.43" y2="353.86"/></g><rect class="cls-3" x="363.69" y="230.41" width="69.41" height="44.78"/><rect class="cls-6" x="363.69" y="121.81" width="69.41" height="72.77"/><g class="cls-7"><line class="cls-5" x1="1.35" y1="359.6" x2="335.44" y2="25.5"/><line class="cls-5" x1="7.49" y1="365.74" x2="341.59" y2="31.64"/><line class="cls-5" x1="13.63" y1="371.89" x2="347.73" y2="37.79"/><line class="cls-5" x1="19.78" y1="378.03" x2="353.88" y2="43.93"/><line class="cls-5" x1="25.92" y1="384.17" x2="360.02" y2="50.08"/><line class="cls-5" x1="32.07" y1="390.32" x2="366.16" y2="56.22"/><line class="cls-5" x1="38.21" y1="396.46" x2="372.31" y2="62.36"/><line class="cls-5" x1="44.35" y1="402.61" x2="378.45" y2="68.51"/><line class="cls-5" x1="50.5" y1="408.75" x2="384.6" y2="74.65"/><line class="cls-5" x1="56.64" y1="414.89" x2="390.74" y2="80.79"/><line class="cls-5" x1="62.78" y1="421.04" x2="396.88" y2="86.94"/><line class="cls-5" x1="68.93" y1="427.18" x2="403.03" y2="93.08"/><line class="cls-5" x1="75.07" y1="433.32" x2="409.17" y2="99.23"/><line class="cls-5" x1="81.22" y1="439.47" x2="415.31" y2="105.37"/><line class="cls-5" x1="87.36" y1="445.61" x2="421.46" y2="111.51"/><line class="cls-5" x1="93.5" y1="451.76" x2="427.6" y2="117.66"/><line class="cls-5" x1="99.65" y1="457.9" x2="433.75" y2="123.8"/><line class="cls-5" x1="105.79" y1="464.04" x2="439.89" y2="129.95"/><line class="cls-5" x1="111.94" y1="470.19" x2="446.03" y2="136.09"/><line class="cls-5" x1="118.08" y1="476.33" x2="452.18" y2="142.23"/><line class="cls-5" x1="124.22" y1="482.48" x2="458.32" y2="148.38"/><line class="cls-5" x1="130.37" y1="488.62" x2="464.47" y2="154.52"/><line class="cls-5" x1="136.51" y1="494.76" x2="470.61" y2="160.67"/><line class="cls-5" x1="142.66" y1="500.91" x2="476.75" y2="166.81"/><line class="cls-5" x1="148.8" y1="507.05" x2="482.9" y2="172.95"/><line class="cls-5" x1="154.94" y1="513.2" x2="489.04" y2="179.1"/><line class="cls-5" x1="161.09" y1="519.34" x2="495.19" y2="185.24"/><line class="cls-5" x1="167.23" y1="525.48" x2="501.33" y2="191.38"/><line class="cls-5" x1="173.37" y1="531.63" x2="507.47" y2="197.53"/><line class="cls-5" x1="179.52" y1="537.77" x2="513.62" y2="203.67"/><line class="cls-5" x1="185.66" y1="543.91" x2="519.76" y2="209.82"/><line class="cls-5" x1="191.81" y1="550.06" x2="525.91" y2="215.96"/><line class="cls-5" x1="197.95" y1="556.2" x2="532.05" y2="222.1"/><line class="cls-5" x1="204.09" y1="562.35" x2="538.19" y2="228.25"/><line class="cls-5" x1="210.24" y1="568.49" x2="544.34" y2="234.39"/><line class="cls-5" x1="216.38" y1="574.63" x2="550.48" y2="240.54"/><line class="cls-5" x1="222.53" y1="580.78" x2="556.62" y2="246.68"/><line class="cls-5" x1="228.67" y1="586.92" x2="562.77" y2="252.82"/><line class="cls-5" x1="234.81" y1="593.07" x2="568.91" y2="258.97"/><line class="cls-5" x1="240.96" y1="599.21" x2="575.06" y2="265.11"/><line class="cls-5" x1="247.1" y1="605.35" x2="581.2" y2="271.26"/><line class="cls-5" x1="253.25" y1="611.5" x2="587.34" y2="277.4"/></g><g class="cls-8"><line class="cls-9" x1="21.43" y1="335.44" x2="355.53" y2="1.35"/><line class="cls-9" x1="27.58" y1="341.59" x2="361.68" y2="7.49"/><line class="cls-9" x1="33.72" y1="347.73" x2="367.82" y2="13.63"/><line class="cls-9" x1="39.87" y1="353.88" x2="373.96" y2="19.78"/><line class="cls-9" x1="46.01" y1="360.02" x2="380.11" y2="25.92"/><line class="cls-9" x1="52.15" y1="366.16" x2="386.25" y2="32.07"/><line class="cls-9" x1="58.3" y1="372.31" x2="392.4" y2="38.21"/><line class="cls-9" x1="64.44" y1="378.45" x2="398.54" y2="44.35"/><line class="cls-9" x1="70.59" y1="384.6" x2="404.68" y2="50.5"/><line class="cls-9" x1="76.73" y1="390.74" x2="410.83" y2="56.64"/><line class="cls-9" x1="82.87" y1="396.88" x2="416.97" y2="62.78"/><line class="cls-9" x1="89.02" y1="403.03" x2="423.12" y2="68.93"/><line class="cls-9" x1="95.16" y1="409.17" x2="429.26" y2="75.07"/><line class="cls-9" x1="101.3" y1="415.31" x2="435.4" y2="81.22"/><line class="cls-9" x1="107.45" y1="421.46" x2="441.55" y2="87.36"/><line class="cls-9" x1="113.59" y1="427.6" x2="447.69" y2="93.5"/><line class="cls-9" x1="119.74" y1="433.75" x2="453.83" y2="99.65"/><line class="cls-9" x1="125.88" y1="439.89" x2="459.98" y2="105.79"/><line class="cls-9" x1="132.02" y1="446.03" x2="466.12" y2="111.94"/><line class="cls-9" x1="138.17" y1="452.18" x2="472.27" y2="118.08"/><line class="cls-9" x1="144.31" y1="458.32" x2="478.41" y2="124.22"/><line class="cls-9" x1="150.46" y1="464.47" x2="484.55" y2="130.37"/><line class="cls-9" x1="156.6" y1="470.61" x2="490.7" y2="136.51"/><line class="cls-9" x1="162.74" y1="476.75" x2="496.84" y2="142.66"/><line class="cls-9" x1="168.89" y1="482.9" x2="502.99" y2="148.8"/><line class="cls-9" x1="175.03" y1="489.04" x2="509.13" y2="154.94"/><line class="cls-9" x1="181.18" y1="495.19" x2="515.27" y2="161.09"/><line class="cls-9" x1="187.32" y1="501.33" x2="521.42" y2="167.23"/><line class="cls-9" x1="193.46" y1="507.47" x2="527.56" y2="173.37"/><line class="cls-9" x1="199.61" y1="513.62" x2="533.71" y2="179.52"/><line class="cls-9" x1="205.75" y1="519.76" x2="539.85" y2="185.66"/><line class="cls-9" x1="211.89" y1="525.91" x2="545.99" y2="191.81"/><line class="cls-9" x1="218.04" y1="532.05" x2="552.14" y2="197.95"/><line class="cls-9" x1="224.18" y1="538.19" x2="558.28" y2="204.09"/><line class="cls-9" x1="230.33" y1="544.34" x2="564.42" y2="210.24"/><line class="cls-9" x1="236.47" y1="550.48" x2="570.57" y2="216.38"/><line class="cls-9" x1="242.61" y1="556.62" x2="576.71" y2="222.53"/><line class="cls-9" x1="248.76" y1="562.77" x2="582.86" y2="228.67"/><line class="cls-9" x1="254.9" y1="568.91" x2="589" y2="234.81"/><line class="cls-9" x1="261.05" y1="575.06" x2="595.14" y2="240.96"/><line class="cls-9" x1="267.19" y1="581.2" x2="601.29" y2="247.1"/><line class="cls-9" x1="273.33" y1="587.34" x2="607.43" y2="253.25"/></g><rect class="cls-10" x="222.31" y="230.41" width="69.41" height="221.67"/><rect class="cls-10" x="363.69" y="230.41" width="69.41" height="221.67"/></g><g id="Layer_2-2" data-name="Layer 2"><text class="cls-11" transform="translate(447.32 369.86)">80%</text><text class="cls-12" transform="translate(454 207.81)"><tspan class="cls-13">35</tspan><tspan class="cls-14" x="45.87" y="0">%</tspan><tspan x="81.21" y="0">-</tspan><tspan x="0" y="31.93">40%</tspan></text><text class="cls-15" transform="translate(211.02 507.44)">&lt; 150€</text><text class="cls-15" transform="translate(352.4 507.44)">&gt; 150€</text><text class="cls-16" transform="translate(201.41 532.42)"><tspan class="cls-17">P</tspan><tspan x="9.54" y="0">or los p</tspan><tspan class="cls-18" x="58.98" y="0">r</tspan><tspan x="64.39" y="0">i</tspan><tspan class="cls-19" x="68.14" y="0">m</tspan><tspan x="82.38" y="0">e</tspan><tspan class="cls-17" x="90.6" y="0">r</tspan><tspan x="95.95" y="0">os </tspan><tspan x="0.69" y="20.15">150€ dedu</tspan><tspan class="cls-20" x="72.42" y="20.15">c</tspan><tspan x="79.99" y="20.15">es el </tspan><tspan x="41.14" y="40.3">80%</tspan></text><text class="cls-16" transform="translate(343.16 532.42)"><tspan class="cls-21">C</tspan><tspan x="9.48" y="0">ua</tspan><tspan class="cls-19" x="26.61" y="0">n</tspan><tspan x="35.8" y="0">do supe</tspan><tspan class="cls-20" x="90.32" y="0">r</tspan><tspan x="95.72" y="0">as </tspan><tspan x="0.42" y="20.15">los 150</tspan><tspan class="cls-22" x="44.69" y="20.15">€</tspan><tspan x="55.71" y="20.15">, </tspan><tspan class="cls-19" x="62.37" y="20.15">a</tspan><tspan x="70.44" y="20.15">demá </tspan><tspan x="6.67" y="40.3">del 80% inicial </tspan><tspan x="-2.95" y="60.46">dedu</tspan><tspan class="cls-20" x="32.69" y="60.46">c</tspan><tspan x="40.25" y="60.46">es el </tspan><tspan class="cls-23" x="74.41" y="60.46">35</tspan><tspan x="89.53" y="60.46">% 0 </tspan><tspan x="-1.02" y="80.61">40% del impo</tspan><tspan class="cls-24" x="92.25" y="80.61">r</tspan><tspan class="cls-25" x="97.96" y="80.61">t</tspan><tspan x="103.28" y="80.61">e </tspan><tspan class="cls-17" x="26.95" y="100.76">r</tspan><tspan x="32.3" y="100.76">estan</tspan><tspan class="cls-25" x="69.99" y="100.76">t</tspan><tspan x="75.31" y="100.76">e</tspan></text></g></g></svg>