<svg xmlns="http://www.w3.org/2000/svg" viewBox="0 0 55.22 55.23"><defs><style>.cls-1{fill:none;stroke:#f92356;stroke-linecap:round;stroke-linejoin:round;stroke-width:4px;}</style></defs><g id="Layer_2" data-name="Layer 2"><g id="Layer_2-2" data-name="Layer 2"><path class="cls-1" d="M22.22,30.51a2.46,2.46,0,0,0,0,.26,48.35,48.35,0,0,1-9.44-2.16c0-.57,0-1.13,0-1.7A44.47,44.47,0,0,0,9.36,9.65,25.51,25.51,0,0,1,27.61,2c.76,0,1.5,0,2.24.1A44.28,44.28,0,0,0,22.1,27.2c0,.65,0,1.29,0,1.93C22.16,29.6,22.19,30.05,22.22,30.51Z"/><path class="cls-1" d="M30.39,53.08A25.64,25.64,0,0,1,8.93,45.14,44.16,44.16,0,0,0,12.8,28.61a48.35,48.35,0,0,0,9.44,2.16c.05.59.11,1.19.18,1.78l.09.75c0,.18,0,.36.08.54l.12.76c0,.18.06.37.1.55s.1.58.16.86l.18.84h0c.25,1.13.54,2.25.88,3.34A44,44,0,0,0,25.81,45c.11.26.23.51.35.77l.36.77.45.91c.22.42.44.84.67,1.25s.31.55.47.83.28.48.43.72.28.47.43.7.31.48.47.72l.47.7Z"/><path class="cls-1" d="M33.56,27.86c0,.21,0,.41,0,.62s0,.6,0,.89,0,.49.07.74l.09.71a47.86,47.86,0,0,1-5.52.32,49.61,49.61,0,0,1-6-.37,2.46,2.46,0,0,1,0-.26c0-.46-.06-.91-.08-1.38,0-.64,0-1.28,0-1.93A44.28,44.28,0,0,1,29.85,2.1h0A25.51,25.51,0,0,1,45.73,9.51,19.92,19.92,0,0,0,33.56,27.86Z"/><path class="cls-1" d="M45.38,46.06a25.54,25.54,0,0,1-15,7l-.48-.69-.47-.7c-.16-.24-.32-.48-.47-.72s-.29-.46-.43-.7-.29-.48-.43-.72-.32-.55-.47-.83-.45-.83-.67-1.25l-.45-.91-.36-.77c-.12-.26-.24-.51-.35-.77A44,44,0,0,1,24,40.2c-.33-1.09-.63-2.21-.88-3.34h0L23,36c-.06-.28-.11-.57-.16-.86s-.07-.37-.1-.55l-.12-.76c0-.18-.05-.36-.08-.54l-.09-.75c-.07-.59-.13-1.19-.18-1.78a49.61,49.61,0,0,0,6,.37,47.86,47.86,0,0,0,5.52-.32,0,0,0,0,1,0,0l.12.72.15.72c.15.65.33,1.28.54,1.91,0,.1.07.2.1.3a15,15,0,0,0,.56,1.39c.06.16.14.32.21.48.26.55.55,1.09.86,1.61l.25.42c.15.24.31.47.47.7s.26.38.4.57l.07.09c.18.24.36.47.55.7l.33.4.12.14c.11.12.22.25.33.36A19,19,0,0,0,40.48,43l.48.4a18.19,18.19,0,0,0,1.6,1.17l.44.28.33.2.29.16h0l.48.26.63.32Z"/><path class="cls-1" d="M12.83,26.91c0,.57,0,1.13,0,1.7a48,48,0,0,1-10.48-5,25.51,25.51,0,0,1,7-13.93A44.47,44.47,0,0,1,12.83,26.91Z"/><path class="cls-1" d="M12.8,28.61A44.16,44.16,0,0,1,8.93,45.14,25.62,25.62,0,0,1,2.32,23.58,48,48,0,0,0,12.8,28.61Z"/><path class="cls-1" d="M53.22,27.62a25.51,25.51,0,0,1-7.84,18.44l-.65-.31-.63-.32-.48-.26h0L43.33,45,43,44.8l-.44-.28A18.19,18.19,0,0,1,41,43.35l-.48-.4a19,19,0,0,1-1.64-1.59c-.11-.11-.22-.24-.33-.36l-.12-.14-.33-.4c-.19-.23-.37-.46-.55-.7l-.07-.09c-.14-.19-.27-.37-.4-.57s-.32-.46-.47-.7L36.32,38c-.31-.52-.6-1.06-.86-1.61-.07-.16-.15-.32-.21-.48a15,15,0,0,1-.56-1.39c0-.1-.07-.2-.1-.3-.21-.63-.39-1.26-.54-1.91l-.15-.72-.12-.72a0,0,0,0,0,0,0A47.94,47.94,0,0,0,53,24.31,25.69,25.69,0,0,1,53.22,27.62Z"/><path class="cls-1" d="M53,24.31a47.94,47.94,0,0,1-19.24,6.51l-.09-.71c0-.25,0-.49-.07-.74s0-.59,0-.89,0-.41,0-.62A19.92,19.92,0,0,1,45.73,9.51,25.57,25.57,0,0,1,53,24.31Z"/></g></g></svg>